<svg clip-rule="evenodd" fill-rule="evenodd" stroke-linejoin="round" stroke-miterlimit="2" viewBox="0 0 772 772" xmlns="http://www.w3.org/2000/svg" xmlns:xlink="http://www.w3.org/1999/xlink"><radialGradient id="a" cx="0" cy="0" gradientTransform="matrix(1574.88 -779.72 -779.72 -1574.88 0 772)" gradientUnits="userSpaceOnUse" r="1"><stop offset="0" stop-color="#3023ae"/><stop offset="1" stop-color="#c86dd7"/></radialGradient><path d="m0 0h1544v772h-1544z" fill="url(#a)" transform="matrix(.5 -0 0 -1 0 772)"/><g fill-rule="nonzero"><path d="m21 3c.552 0 1 .448 1 1v16c0 .552-.448 1-1 1h-18c-.552 0-1-.448-1-1v-16c0-.552.448-1 1-1zm-1 2h-16v14h16zm-2 2v2h-12v-2z" fill="#ff9414" transform="matrix(13.6449766885 -2.1330512873 1.7590003648 11.252148995 201.15454265 472.6154452)"/><path d="m15.387 13.498 2.553 7.014-4.698 1.71-2.553-7.014-3.899 2.445 1.619-16.02 11.537 11.232zm-.01 5.818-2.715-7.459 2.959-.411-5.639-5.49-.791 7.83 2.531-1.587 2.715 7.459z" fill="#fff" transform="matrix(4.88050574158 -1.67719573047 1.91061891276 5.19404609001 299.133719394 559.868140286)"/><g fill="#ff9414" transform="translate(-342.234 -134.633)"><path d="m576.696 300.9h4.838c5.55 0 9.525-.713 11.925-2.138s3.6-3.712 3.6-6.862-1.2-5.438-3.6-6.863-6.375-2.137-11.925-2.137h-4.838zm0-34.425h4.05c6.9 0 10.35-2.738 10.35-8.213s-3.45-8.212-10.35-8.212h-4.05zm-22.05-33.3h32.85c7.8 0 13.725 1.875 17.775 5.625s6.075 9.15 6.075 16.2c0 4.275-.769 7.819-2.306 10.631-1.538 2.813-3.881 5.194-7.031 7.144 3.15.6 5.831 1.519 8.043 2.756 2.213 1.238 4.013 2.756 5.4 4.556 1.388 1.8 2.382 3.825 2.982 6.075s.9 4.65.9 7.2c0 3.975-.694 7.5-2.082 10.575-1.387 3.075-3.337 5.663-5.85 7.763-2.512 2.1-5.568 3.675-9.168 4.725s-7.65 1.575-12.15 1.575h-35.438z"/><path d="m630.584 260.287h20.362v9.45c2.175-3.45 4.838-6.093 7.988-7.931 3.15-1.837 6.825-2.756 11.025-2.756h1.743c.638 0 1.369.075 2.194.225v19.462c-2.7-1.35-5.625-2.025-8.775-2.025-4.725 0-8.269 1.407-10.631 4.219-2.363 2.813-3.544 6.919-3.544 12.319v24.75h-20.362z"/><path d="m703.371 260.287v57.713h-20.362v-57.713zm-21.712-22.162c0-1.575.3-3.056.9-4.444.6-1.387 1.425-2.606 2.475-3.656s2.268-1.875 3.656-2.475c1.387-.6 2.869-.9 4.444-.9s3.056.3 4.443.9c1.388.6 2.607 1.425 3.657 2.475s1.875 2.269 2.475 3.656c.6 1.388.9 2.869.9 4.444s-.3 3.056-.9 4.444c-.6 1.387-1.425 2.606-2.475 3.656s-2.269 1.875-3.657 2.475c-1.387.6-2.868.9-4.443.9s-3.057-.3-4.444-.9c-1.388-.6-2.606-1.425-3.656-2.475s-1.875-2.269-2.475-3.656c-.6-1.388-.9-2.869-.9-4.444z"/><path d="m760.859 278.962c-3.525-2.4-7.088-3.6-10.688-3.6-1.95 0-3.769.338-5.456 1.013-1.688.675-3.169 1.631-4.444 2.869-1.275 1.237-2.269 2.7-2.981 4.387-.713 1.688-1.069 3.581-1.069 5.681 0 2.025.356 3.882 1.069 5.569.712 1.688 1.687 3.15 2.925 4.388 1.237 1.237 2.719 2.193 4.444 2.868s3.562 1.013 5.512 1.013c3.825 0 7.388-1.313 10.688-3.938v17.325c-5.025 2.175-9.788 3.263-14.288 3.263-4.2 0-8.194-.713-11.981-2.138-3.788-1.425-7.125-3.468-10.013-6.131-2.887-2.662-5.193-5.85-6.918-9.562-1.725-3.713-2.588-7.857-2.588-12.432s.825-8.756 2.475-12.543c1.65-3.788 3.9-7.05 6.75-9.788 2.85-2.737 6.244-4.875 10.181-6.412 3.938-1.538 8.157-2.307 12.657-2.307 4.95 0 9.525 1.05 13.725 3.15z"/><path d="m795.621 224.625v56.475l21.375-20.813h27.9l-28.912 26.663 30.6 31.05h-28.575l-22.388-23.513v23.513h-20.362v-93.375z"/><path d="m893.609 275.137c-3.75-1.95-7.425-2.925-11.025-2.925-1.875 0-3.394.375-4.557 1.125-1.162.75-1.743 1.763-1.743 3.038 0 .675.093 1.219.281 1.631.187.413.6.806 1.237 1.181.638.375 1.575.713 2.813 1.013 1.237.3 2.869.675 4.894 1.125 5.625 1.125 9.825 3.131 12.6 6.019 2.775 2.887 4.162 6.581 4.162 11.081 0 3.375-.675 6.412-2.025 9.112s-3.225 4.969-5.625 6.807c-2.4 1.837-5.287 3.262-8.662 4.275-3.375 1.012-7.088 1.518-11.138 1.518-7.8 0-15.487-2.212-23.062-6.637l7.425-14.4c5.7 3.9 11.1 5.85 16.2 5.85 1.875 0 3.412-.413 4.612-1.238s1.8-1.875 1.8-3.15c0-.75-.094-1.368-.281-1.856-.188-.487-.581-.937-1.181-1.35-.6-.412-1.482-.787-2.644-1.125-1.163-.337-2.681-.694-4.556-1.069-6.3-1.275-10.707-3.168-13.219-5.681-2.513-2.512-3.769-5.981-3.769-10.406 0-3.225.6-6.131 1.8-8.719 1.2-2.587 2.925-4.781 5.175-6.581s4.969-3.188 8.156-4.163c3.188-.975 6.732-1.462 10.632-1.462 6.375 0 12.562 1.237 18.562 3.712z"/><path d="m427.184 442.254c0-6.3 1.162-12.169 3.487-17.606 2.325-5.438 5.55-10.181 9.675-14.231s9.056-7.219 14.794-9.507c5.737-2.287 12.056-3.431 18.956-3.431 6.825 0 13.125 1.144 18.9 3.431 5.775 2.288 10.744 5.457 14.906 9.507 4.163 4.05 7.407 8.793 9.732 14.231 2.325 5.437 3.487 11.306 3.487 17.606 0 5.85-.956 11.288-2.869 16.313-1.912 5.025-4.668 9.487-8.268 13.387l14.4 15.075-20.25 3.15-7.763-7.987c-3.3 1.5-6.806 2.681-10.519 3.543-3.712.863-7.631 1.294-11.756 1.294-6.9 0-13.219-1.144-18.956-3.431-5.738-2.288-10.669-5.456-14.794-9.506s-7.35-8.794-9.675-14.232c-2.325-5.437-3.487-11.306-3.487-17.606zm23.062 0c0 3.375.638 6.488 1.913 9.338s3 5.325 5.175 7.425 4.706 3.731 7.593 4.893c2.888 1.163 5.944 1.744 9.169 1.744 1.95 0 3.9-.225 5.85-.675l-12.6-13.275 20.813-2.587 5.85 6.187c2.7-3.75 4.05-8.1 4.05-13.05 0-3.375-.638-6.487-1.913-9.337s-3.019-5.325-5.231-7.425c-2.213-2.1-4.763-3.732-7.65-4.894-2.888-1.163-5.944-1.744-9.169-1.744s-6.281.581-9.169 1.744c-2.887 1.162-5.418 2.794-7.593 4.894s-3.9 4.575-5.175 7.425-1.913 5.962-1.913 9.337z"/><path d="m553.521 426.954v32.513c0 7.125 3.45 10.687 10.35 10.687s10.35-3.562 10.35-10.687v-32.513h20.363v36.45c0 7.8-2.569 13.65-7.707 17.55-5.137 3.9-12.806 5.85-23.006 5.85s-17.869-1.95-23.006-5.85-7.706-9.75-7.706-17.55v-36.45z"/><path d="m628.784 426.954v57.713h-20.363v-57.713zm-21.713-22.162c0-1.575.3-3.057.9-4.444.6-1.388 1.425-2.606 2.475-3.656s2.269-1.875 3.657-2.475c1.387-.6 2.868-.9 4.443-.9s3.057.3 4.444.9 2.606 1.425 3.656 2.475 1.875 2.268 2.475 3.656c.6 1.387.9 2.869.9 4.444s-.3 3.056-.9 4.443c-.6 1.388-1.425 2.607-2.475 3.657s-2.269 1.875-3.656 2.475-2.869.9-4.444.9-3.056-.3-4.443-.9c-1.388-.6-2.607-1.425-3.657-2.475s-1.875-2.269-2.475-3.657c-.6-1.387-.9-2.868-.9-4.443z"/><path d="m686.271 445.629c-3.525-2.4-7.087-3.6-10.687-3.6-1.95 0-3.769.338-5.457 1.013-1.687.675-3.168 1.631-4.443 2.868-1.275 1.238-2.269 2.7-2.981 4.388-.713 1.687-1.069 3.581-1.069 5.681 0 2.025.356 3.881 1.069 5.569.712 1.687 1.687 3.15 2.924 4.387 1.238 1.238 2.719 2.194 4.444 2.869s3.563 1.013 5.513 1.013c3.825 0 7.387-1.313 10.687-3.938v17.325c-5.025 2.175-9.787 3.263-14.287 3.263-4.2 0-8.194-.713-11.982-2.138-3.787-1.425-7.125-3.469-10.012-6.131-2.887-2.663-5.194-5.85-6.919-9.563-1.725-3.712-2.587-7.856-2.587-12.431s.825-8.756 2.475-12.544c1.65-3.787 3.9-7.05 6.75-9.787 2.85-2.738 6.244-4.875 10.181-6.413 3.938-1.537 8.156-2.306 12.656-2.306 4.95 0 9.525 1.05 13.725 3.15z"/><path d="m721.034 391.292v56.475l21.375-20.813h27.9l-28.913 26.663 30.6 31.05h-28.575l-22.387-23.513v23.513h-20.363v-93.375z"/><path d="m781.109 484.667v-84.825h22.05l40.725 51.862v-51.862h21.937v84.825h-21.937l-40.725-51.863v51.863z"/><path d="m901.821 455.642c0 1.875.338 3.618 1.013 5.231.675 1.612 1.594 3.019 2.756 4.219s2.55 2.137 4.162 2.812c1.613.675 3.357 1.013 5.232 1.013 1.8 0 3.506-.338 5.119-1.013 1.612-.675 3-1.612 4.162-2.812 1.163-1.2 2.1-2.588 2.813-4.163.712-1.575 1.068-3.262 1.068-5.062s-.356-3.507-1.068-5.119c-.713-1.613-1.65-3.019-2.813-4.219-1.162-1.2-2.55-2.137-4.162-2.812-1.613-.675-3.319-1.013-5.119-1.013-1.875 0-3.619.338-5.232 1.013-1.612.675-3 1.612-4.162 2.812s-2.081 2.569-2.756 4.106c-.675 1.538-1.013 3.207-1.013 5.007zm25.65-28.688h20.475v57.713h-20.475v-6.413c-4.35 5.475-10.237 8.213-17.662 8.213-4.2 0-8.063-.769-11.588-2.307-3.525-1.537-6.6-3.693-9.225-6.468s-4.668-6.038-6.131-9.788-2.194-7.837-2.194-12.262c0-4.125.713-8.044 2.138-11.757 1.425-3.712 3.412-6.956 5.962-9.731s5.588-4.969 9.113-6.581c3.525-1.613 7.425-2.419 11.7-2.419 7.2 0 13.162 2.513 17.887 7.538z"/><path d="m978.884 426.954 13.725 29.588 13.951-29.588h22.72l-30.034 57.713h-13.612l-29.7-57.713z"/></g></g></svg>